<svg id="e9a400c3-14c4-48e9-ac4d-1e6d0c39fdb5" data-name="Layer 1" xmlns="http://www.w3.org/2000/svg" width="893.6" height="736.8" viewBox="0 0 893.61704 736.75"><title>investing</title><path d="M 321.9 651.9 s 332.5 -277.5 524 0" transform="translate(-153.4,-81.4)" fill="#f2f2f2"/><ellipse cx="714.1" cy="712.8" rx="154" ry="24" fill="#f2f2f2"/><ellipse cx="739.1" cy="703.8" rx="154" ry="24" fill="none" stroke="#3f3d56" stroke-miterlimit="10"/><path d="M 958 536.8 a 15.5 15.5 0 1 0 2.1 -29.8 l 0.4 8 l -3.8 -6.8 a 15.5 15.5 0 0 0 -8 8.7 a 15.2 15.2 0 0 0 -0.9 4.2 A 15.5 15.5 0 0 0 958 536.8 Z" transform="translate(-153.4,-81.4)" fill="#57b894"/><path d="M 976.8 629.5 c -1.3 -6.8 4.4 -12.8 10.2 -16.7 s 12.4 -7.8 14.3 -14.4 c 2.8 -9.6 -5.5 -18.3 -12 -25.8 a 93.5 93.5 0 0 1 -12.3 -18.3 a 25.2 25.2 0 0 1 -2.9 -8.3 c -0.5 -4.2 0.8 -8.4 2.2 -12.5 q 6.8 -20.2 14.6 -40" transform="translate(-153.4,-81.4)" fill="none" stroke="#3f3d56" stroke-miterlimit="10"/><path d="M 958.7 534.8 a 15.5 15.5 0 1 0 2.1 -29.8 l 0.4 8 l -3.8 -6.8 a 15.5 15.5 0 0 0 -8 8.7 a 15.2 15.2 0 0 0 -0.9 4.2 A 15.5 15.5 0 0 0 958.7 534.8 Z" transform="translate(-153.4,-81.4)" fill="none" stroke="#3f3d56" stroke-miterlimit="10"/><path d="M 974.9 490.6 a 15.5 15.5 0 0 1 11.2 -9.8 l 1.3 7.6 l 2.4 -8 a 15.5 15.5 0 1 1 -14.8 10.2 Z" transform="translate(-153.4,-81.4)" fill="#57b894"/><path d="M 975.7 487.9 a 15.5 15.5 0 0 1 11.2 -9.8 l 1.3 7.6 l 2.4 -8 a 15.5 15.5 0 1 1 -14.8 10.2 Z" transform="translate(-153.4,-81.4)" fill="none" stroke="#3f3d56" stroke-miterlimit="10"/><path d="M 986.5 572.7 a 15.5 15.5 0 0 0 13.7 -27.6 L 998.4 551.2 l -1.3 -7.7 a 0.3 0.3 0 0 0 0 0 a 15.5 15.5 0 1 0 -10.6 29.2 Z" transform="translate(-153.4,-81.4)" fill="#57b894"/><path d="M 987.2 569.9 a 15.5 15.5 0 0 0 13.7 -27.6 l -1.8 6.1 l -1.3 -7.7 a 0.3 0.3 0 0 0 0 0 a 15.5 15.5 0 1 0 -10.6 29.2 Z" transform="translate(-153.4,-81.4)" fill="none" stroke="#3f3d56" stroke-miterlimit="10"/><path d="M 970.3 598.5 a 15.5 15.5 0 1 0 3 -12.2 l 6.9 10.4 l -9.5 -5.5 A 15.4 15.4 0 0 0 970.3 598.5 Z" transform="translate(-153.4,-81.4)" fill="#57b894"/><path d="M 971 596.4 a 15.5 15.5 0 1 0 3 -12.2 l 6.9 10.4 l -9.5 -5.5 A 15.4 15.4 0 0 0 971 596.4 Z" transform="translate(-153.4,-81.4)" fill="none" stroke="#3f3d56" stroke-miterlimit="10"/><path d="M 955.2 638.7 s 13.7 -5.4 17.8 -8.3 s 21.1 -6.5 22.1 -1.7 s 20.6 23.5 5.1 23.6 s -35.9 2.5 -40.1 0 S 955.2 638.7 955.2 638.7 Z" transform="translate(-153.4,-81.4)" fill="#656380"/><path d="M 1000.5 650.6 c -15.5 0.1 -35.9 2.5 -40.1 0 c -3.1 -1.9 -4.4 -8.8 -4.8 -11.9 c -0.3 0 -0.5 0 -0.5 0 s 0.9 11.1 5 13.6 s 24.6 0.1 40.1 0 c 4.5 0 6 -1.6 5.9 -4 C 1005.6 649.7 1003.9 650.6 1000.5 650.6 Z" transform="translate(-153.4,-81.4)" opacity="0.2"/><rect x="159" y="413" width="60" height="158" rx="11.9" fill="#fdc134"/><rect x="273" y="318" width="60" height="253" rx="11.9" fill="#fdc134"/><rect x="387" y="252" width="60" height="319" rx="11.9" fill="#fdc134"/><rect x="501" y="189" width="60" height="382" rx="11.9" fill="#fdc134"/><rect x="615" y="79" width="60" height="492" rx="11.9" fill="#fdc134"/><rect x="167" y="405" width="60" height="158" rx="11.9" fill="none" stroke="#3f3d56" stroke-miterlimit="10"/><rect x="281" y="310" width="60" height="253" rx="11.9" fill="none" stroke="#3f3d56" stroke-miterlimit="10"/><rect x="395" y="244" width="60" height="319" rx="11.9" fill="none" stroke="#3f3d56" stroke-miterlimit="10"/><rect x="509" y="181" width="60" height="382" rx="11.9" fill="none" stroke="#3f3d56" stroke-miterlimit="10"/><rect x="623" y="71" width="60" height="492" rx="11.9" fill="none" stroke="#3f3d56" stroke-miterlimit="10"/><line x1="861" y1="571.5" y2="571.5" fill="none" stroke="#3f3d56" stroke-miterlimit="10"/><path d="M 960.1 557 s 9.4 33.9 -2.5 38.9 s -8.2 -37.6 -8.2 -37.6 Z" transform="translate(-153.4,-81.4)" fill="#a0616a"/><path d="M 874.8 774 s -8.8 -0.6 -11.9 1.3 a 7.6 7.6 0 0 1 -6.3 0.6 s -13.8 -1.3 -8.8 5.6 S 857.9 791 857.9 794.1 s 20.7 3.1 21.3 0 s 1.3 -19.4 0 -20.1 S 874.8 774 874.8 774 Z" transform="translate(-153.4,-81.4)" fill="#575a89"/><path d="M 898 774 s 8.8 -0.6 11.9 1.3 a 7.6 7.6 0 0 0 6.3 0.6 s 13.8 -1.3 8.8 5.6 s -10 9.4 -10 12.5 s -20.7 3.1 -21.3 0 s -1.3 -19.4 0 -20.1 S 898 774 898 774 Z" transform="translate(-153.4,-81.4)" fill="#575a89"/><path d="M 849.1 550 s -4.4 99.1 -1.9 104.1 s 11.3 89.7 10 94.7 s -7.5 25.7 0 28.9 s 23.8 0 23.8 0 s 4.4 -25.1 2.5 -38.3 s -2.5 -68.4 -2.5 -68.4 l 12.5 -57.7 l 4.4 54.6 s 1.3 74.7 -7.5 89.7 s 3.1 21.3 3.1 21.3 s 23.8 3.1 26.4 2.5 s -1.9 -25.1 0 -35.8 s 6.3 -70.3 10 -84.7 s 25.1 -94.7 9.4 -111 S 849.1 550 849.1 550 Z" transform="translate(-153.4,-81.4)" fill="#3f3d56"/><circle cx="741.5" cy="246.6" r="22" fill="#a0616a"/><path d="M 878.6 338 s 3.8 30.1 1.9 30.7 s 33.3 0 33.3 0 s -6.9 -18.2 0 -32.6 Z" transform="translate(-153.4,-81.4)" fill="#a0616a"/><path d="M 878.6 362.5 s 15.3 -15.1 33.4 0 l 1.2 4.5 l -9.4 -0.1 H 878.6 Z" transform="translate(-153.4,-81.4)" fill="#f2f2f2"/><path d="M 953.2 555.1 c -1.4 0.3 -5 0.9 -9.6 1.6 c -15.4 2.3 -42.7 5.9 -43.7 3.4 c -1.3 -3.1 -5.6 -14.4 -8.8 -9.4 s -1.3 9.4 -14.4 10 c -9 0.4 -22 -0.9 -29.2 -3 c -3.4 -1 -5.5 -2.1 -5.3 -3.3 c 0.6 -3.8 7.5 -75.3 7.5 -82.2 s 2.5 -40.2 2.5 -40.2 l -18 -35.5 l -1.4 -2.8 s 1.9 -6.9 7.5 -8.2 S 872.9 368.7 872.9 368.7 s 5.6 -8.8 16.3 -8.2 s 13.2 -3.8 27.6 8.2 c 0 0 17.6 7.5 23.8 11.3 s 13.2 3.8 13.8 10 c 0.1 1.3 -0.6 3.7 -1.7 6.8 c -4.3 11.2 -15.2 31.1 -16.9 34.2 c -0.2 0.3 -0.2 0.4 -0.2 0.4 s -0.3 11.3 0 24.5 v 0 c 0.3 12.7 1.3 27.1 3.7 35.1 C 944.5 507.4 959.5 553.8 953.2 555.1 Z" transform="translate(-153.4,-81.4)" fill="#575a89"/><path d="M 923.4 318.9 a 15 15 0 0 0 -2.5 -5.5 a 30 30 0 0 0 -4.5 -12.9 a 13.5 13.5 0 0 0 -4 -4.6 a 11.8 11.8 0 0 0 -6.3 -1.6 c -0.4 0 -1.1 0.1 -1.8 0.1 c -0.4 -0.1 -0.8 -0.2 -1.3 -0.4 c -0.2 -0.5 -0.7 -2.1 -0.9 -2 l -1.8 1.5 c -0.8 -0.1 -1.6 -0.2 -2.3 -0.3 q -0.4 -1.2 -0.9 -2.4 a 16.7 16.7 0 0 0 -1.2 2.3 q -1.2 -0.1 -2.3 0 l -1.6 -1.5 a 2.2 2.2 0 0 1 -1.7 1.7 c -0.7 0.1 -1.4 0.2 -2.1 0.3 c -0.1 0 -0.1 0 -0.2 0 c -3.8 -0.1 -8 -0.3 -11.2 1.8 a 11 11 0 0 0 -3.5 4 c -0.4 0.3 -0.8 0.5 -1.2 0.8 a 12.7 12.7 0 0 0 -3.3 3.3 a 13.8 13.8 0 0 0 -1.5 3.5 a 33.8 33.8 0 0 0 -1.7 11.5 A 17.1 17.1 0 0 0 870 329.1 c 1.6 1.8 3.7 3.1 5.4 4.8 c 3.4 3.6 4 8.7 6.9 12.5 c 3.1 4.1 8.7 6.7 13.6 7.5 a 22.7 22.7 0 0 0 16.9 -4.2 a 10.4 10.4 0 0 0 2.9 -3 c 1.7 -2.9 1 -6.7 1.6 -10 C 918.5 330.5 924.4 325.2 923.4 318.9 Z" transform="translate(-153.4,-81.4)" fill="#3f3d56"/><path d="M 839.7 558.8 s 9.4 33.9 -2.5 38.9 s -8.2 -37.6 -8.2 -37.6 Z" transform="translate(-153.4,-81.4)" fill="#a0616a"/><path d="M 851 482 s -4.1 61.1 -3.5 75.8 c -3.4 -1 -5.5 -2.1 -5.3 -3.3 c 0.6 -3.8 7.5 -75.3 7.5 -82.2 s 2.5 -40.2 2.5 -40.2 l -18 -35.5 c 0.3 -1.8 0.5 -2.8 0.5 -2.8 l 9.1 19.1 l 12.9 3.5 Z" transform="translate(-153.4,-81.4)" opacity="0.1"/><path d="M 837.2 390.1 l -4.4 3.8 s -5.6 33.3 -5 41.4 s -13.2 131.8 -2.5 131.8 s 22.6 -1.9 20.7 -6.3 s 3.1 -78.8 3.1 -78.8 l 5.7 -65.5 Z" transform="translate(-153.4,-81.4)" fill="#575a89"/><path d="M 952.8 396.8 c -4.3 11.2 -15.2 31.1 -16.9 34.2 c 0.1 -8 0.1 -13.7 0.1 -13.7 l 13.2 -27 l 2.8 -2.2 S 952.3 391.5 952.8 396.8 Z" transform="translate(-153.4,-81.4)" opacity="0.1"/><path d="M 953.2 555.1 c -1.4 0.3 -5 0.9 -9.6 1.6 c -2.4 -17.8 -8.8 -68.9 -8.4 -73.7 c 0.2 -2.4 0.4 -14.1 0.5 -27 c 0.3 12.7 1.3 27.1 3.7 35.1 C 944.5 507.4 959.5 553.8 953.2 555.1 Z" transform="translate(-153.4,-81.4)" opacity="0.1"/><path d="M 945.1 385.7 l 9.4 2.5 s 6.3 69.6 6.9 81.6 s 8.2 85.3 6.9 88.5 s -20.7 7.5 -21.3 4.4 s -9.7 -73.9 -9.3 -79.6 s -2.7 -64.7 -2.7 -64.7 Z" transform="translate(-153.4,-81.4)" fill="#575a89"/><polyline points="196.5,344.5 310.5,249.5 425.5,184.5 539.5,121.5 653.5,11.5" fill="none" stroke="#3f3d56" stroke-miterlimit="10"/><circle cx="193.5" cy="349.5" r="11" fill="#f2f2f2"/><circle cx="307.5" cy="254.5" r="11" fill="#f2f2f2"/><circle cx="422.5" cy="189.5" r="11" fill="#f2f2f2"/><circle cx="536.5" cy="126.5" r="11" fill="#f2f2f2"/><circle cx="650.5" cy="16.5" r="11" fill="#f2f2f2"/><circle cx="196.5" cy="344.5" r="11" fill="none" stroke="#3f3d56" stroke-miterlimit="10"/><circle cx="310.5" cy="249.5" r="11" fill="none" stroke="#3f3d56" stroke-miterlimit="10"/><circle cx="425.5" cy="184.5" r="11" fill="none" stroke="#3f3d56" stroke-miterlimit="10"/><circle cx="539.5" cy="121.5" r="11" fill="none" stroke="#3f3d56" stroke-miterlimit="10"/><circle cx="653.5" cy="11.5" r="11" fill="none" stroke="#3f3d56" stroke-miterlimit="10"/></svg>