<?xml version="1.0" encoding="UTF-8"?> <svg xmlns="http://www.w3.org/2000/svg" xmlns:xlink="http://www.w3.org/1999/xlink" id="70bb2b30-be60-4de4-9e4b-86e23973444e" data-name="Layer 1" width="1143.1" height="875.8" viewBox="0 0 1143.11 875.78"><defs><linearGradient id="e5da6213-051c-4da8-b1b3-926fff123e76" x1="539.33" y1="763.29" x2="539.33" y2="57.83" gradientUnits="userSpaceOnUse"><stop offset="0" stop-color="grey" stop-opacity="0.25"></stop><stop offset="0.5" stop-color="grey" stop-opacity="0.12"></stop><stop offset="1" stop-color="grey" stop-opacity="0.1"></stop></linearGradient><linearGradient id="052f7d93-657d-41ac-9ec0-ae0276bba283" x1="1034.54" y1="812.84" x2="1034.54" y2="197.81" gradientTransform="matrix(-1, 0, 0, 1, 1347.17, 0)" xlink:href="#e5da6213-051c-4da8-b1b3-926fff123e76"></linearGradient></defs><title>onboarding</title><ellipse cx="849.7" cy="829.2" rx="115.8" ry="28.9" fill="#FDC134" opacity="0.1"></ellipse><path d="M 63.7 616.8 c -13.1 4.5 -29 13.7 -26.3 28.2 c 1.3 7.4 7.3 12.8 13 17.5 a 368.3 368.3 0 0 0 79.4 49.1 c 13.6 6.2 28 11.8 38.3 23.2 s 15 27.2 18.3 42.5 a 345.9 345.9 0 0 1 5.7 110.4 c 40.9 0.8 86.2 -0.1 115.2 -29.6 c 17.3 -17.6 26.6 -43.8 47 -57.5 c 13.6 -9.1 30.3 -11.4 46.5 -13.3 q 114.9 -13.4 230.9 -16.3 c 32.4 -0.8 65.5 -1.1 95.8 -12.4 s 57.8 -36 63.9 -69.5 c 0.9 -5.2 1.6 -10.8 5.1 -14.4 c 3.1 -3.2 7.9 -4 12.3 -4.6 l 265.9 -36 c 14.6 -2 29.6 -4.1 41.9 -12.4 c 11.9 -8 19.9 -20.8 27.5 -33.2 c 17.5 -28.5 35.7 -63 23.6 -95.6 c -9.7 -26.1 -35.8 -41.1 -60.8 -50.4 s -51.8 -15.9 -72.1 -34.1 c -30.8 -27.8 -37.7 -74 -46.4 -115.4 a 675.4 675.4 0 0 0 -33 -109.9 C 943 151.9 927.9 121 905.3 96.6 S 851.6 54.9 820 56.2 C 778.7 57.8 742.4 90 701 86 c -34.9 -3.4 -63.4 -31.4 -94.8 -48.8 C 550.3 6.3 484.4 9 423.3 18.6 c -64.8 10.2 -130 28.1 -182.5 68.3 c -12 9.2 -23.5 19.8 -30.5 33.7 c -10.8 21.2 -9.9 47.1 -15.3 70.7 c -21.8 95 -138.7 134.6 -162.7 228.9 C 23.7 453.7 30.1 490 45.7 520.9 c 16.9 33.3 50.7 47.5 68 76.1 C 102.2 607.6 79.1 611.5 63.7 616.8 Z" transform="translate(-28.4,-12.1)" fill="#3F3D56" opacity="0.1"></path><path d="M 898.6 849 s -10.5 -72.2 21 -119.7 a 110.5 110.5 0 0 0 18.7 -67.4 a 185.4 185.4 0 0 0 -5.1 -33.6" transform="translate(-28.4,-12.1)" fill="none" stroke="#535461" stroke-miterlimit="10" stroke-width="2"></path><path d="M 952.9 598.2 c -1.2 8.5 -20.1 30.9 -20.1 30.9 S 921 602.3 922.2 593.8 a 15.5 15.5 0 1 1 30.7 4.4 Z" transform="translate(-28.4,-12.1)" fill="#3F3D56"></path><path d="M 971.6 648.9 c -5.6 6.5 -33.7 15 -33.7 15 s 4.6 -29 10.3 -35.4 a 15.5 15.5 0 1 1 23.4 20.4 Z" transform="translate(-28.4,-12.1)" fill="#3F3D56"></path><path d="M 959 729.1 c -8.1 2.7 -36.7 -4 -36.7 -4 s 18.6 -22.7 26.8 -25.4 A 15.5 15.5 0 0 1 959 729.1 Z" transform="translate(-28.4,-12.1)" fill="#3F3D56"></path><path d="M 935.8 787.6 c -7.5 4.1 -36.8 2.2 -36.8 2.2 s 14.5 -25.5 22.1 -29.5 a 15.5 15.5 0 0 1 14.7 27.3 Z" transform="translate(-28.4,-12.1)" fill="#3F3D56"></path><path d="M 905.4 660.9 c 5.2 6.8 32.7 17 32.7 17 s -2.9 -29.2 -8.2 -36 a 15.5 15.5 0 0 0 -24.6 19 Z" transform="translate(-28.4,-12.1)" fill="#3F3D56"></path><path d="M 879.1 729.7 c 7 4.9 36.3 6.4 36.3 6.4 s -11.5 -27 -18.5 -31.9 a 15.5 15.5 0 1 0 -17.8 25.5 Z" transform="translate(-28.4,-12.1)" fill="#3F3D56"></path><path d="M 862.8 800.1 c 6.1 6 34.7 12.4 34.7 12.4 S 890.7 784 884.6 778 a 15.5 15.5 0 1 0 -21.8 22.1 Z" transform="translate(-28.4,-12.1)" fill="#3F3D56"></path><path d="M 952.9 598.2 c -1.2 8.5 -20.1 30.9 -20.1 30.9 S 921 602.3 922.2 593.8 a 15.5 15.5 0 1 1 30.7 4.4 Z" transform="translate(-28.4,-12.1)" opacity="0.25"></path><path d="M 971.6 648.9 c -5.6 6.5 -33.7 15 -33.7 15 s 4.6 -29 10.3 -35.4 a 15.5 15.5 0 1 1 23.4 20.4 Z" transform="translate(-28.4,-12.1)" opacity="0.25"></path><path d="M 959 729.1 c -8.1 2.7 -36.7 -4 -36.7 -4 s 18.6 -22.7 26.8 -25.4 A 15.5 15.5 0 0 1 959 729.1 Z" transform="translate(-28.4,-12.1)" opacity="0.25"></path><path d="M 935.8 787.6 c -7.5 4.1 -36.8 2.2 -36.8 2.2 s 14.5 -25.5 22.1 -29.5 a 15.5 15.5 0 0 1 14.7 27.3 Z" transform="translate(-28.4,-12.1)" opacity="0.25"></path><path d="M 905.4 660.9 c 5.2 6.8 32.7 17 32.7 17 s -2.9 -29.2 -8.2 -36 a 15.5 15.5 0 0 0 -24.6 19 Z" transform="translate(-28.4,-12.1)" opacity="0.25"></path><path d="M 879.1 729.7 c 7 4.9 36.3 6.4 36.3 6.4 s -11.5 -27 -18.5 -31.9 a 15.5 15.5 0 1 0 -17.8 25.5 Z" transform="translate(-28.4,-12.1)" opacity="0.25"></path><path d="M 862.8 800.1 c 6.1 6 34.7 12.4 34.7 12.4 S 890.7 784 884.6 778 a 15.5 15.5 0 1 0 -21.8 22.1 Z" transform="translate(-28.4,-12.1)" opacity="0.25"></path><path d="M 899.5 846.7 s -38.8 -61.8 -29.3 -118 A 110.5 110.5 0 0 0 860 659.6 a 185.5 185.5 0 0 0 -18.3 -28.7" transform="translate(-28.4,-12.1)" fill="none" stroke="#535461" stroke-miterlimit="10" stroke-width="2"></path><path d="M 847.5 595.4 c 2.3 8.3 -5.9 36.4 -5.9 36.4 s -21.7 -19.7 -24 -28 a 15.5 15.5 0 1 1 29.9 -8.4 Z" transform="translate(-28.4,-12.1)" fill="#FDC134"></path><path d="M 885.1 634.2 c -2.5 8.2 -24.7 27.4 -24.7 27.4 s -7.5 -28.3 -5 -36.5 a 15.5 15.5 0 0 1 29.7 9.2 Z" transform="translate(-28.4,-12.1)" fill="#FDC134"></path><path d="M 906.1 712.6 c -6.3 5.8 -35.1 11.2 -35.1 11.2 s 7.8 -28.3 14.2 -34 a 15.5 15.5 0 0 1 21 22.9 Z" transform="translate(-28.4,-12.1)" fill="#FDC134"></path><path d="M 908.6 775.5 c -5.3 6.8 -32.8 16.9 -32.8 16.9 s 3 -29.2 8.2 -36 a 15.5 15.5 0 1 1 24.6 19 Z" transform="translate(-28.4,-12.1)" fill="#FDC134"></path><path d="M 829.5 672 c 7.5 4.1 36.8 2.3 36.8 2.3 s -14.5 -25.5 -22 -29.6 A 15.5 15.5 0 1 0 829.5 672 Z" transform="translate(-28.4,-12.1)" fill="#FDC134"></path><path d="M 833.3 745.6 c 8.4 1.6 35.8 -8.8 35.8 -8.8 s -21.4 -20 -29.9 -21.6 a 15.5 15.5 0 1 0 -5.9 30.5 Z" transform="translate(-28.4,-12.1)" fill="#FDC134"></path><path d="M 846.9 816.5 c 8 3 36.8 -2.7 36.8 -2.7 s -17.8 -23.3 -25.8 -26.4 a 15.5 15.5 0 0 0 -11 29 Z" transform="translate(-28.4,-12.1)" fill="#FDC134"></path><polygon points="285.6,57.8 285.6,85.2 285.6,763.3 793,763.3 793,85.2 793,57.8 285.6,57.8" fill="url(#e5da6213-051c-4da8-b1b3-926fff123e76)"></polygon><rect x="290.1" y="64" width="498.5" height="26.9" fill="#3F3D56"></rect><g opacity="0.2"><rect x="290.1" y="64" width="498.5" height="26.9" fill="#3F3D56"></rect></g><rect x="290.1" y="90.9" width="498.5" height="666.2" fill="#f6f7f9"></rect><circle cx="303.2" cy="77.5" r="4.6" fill="#f6f7f9"></circle><circle cx="315.6" cy="77.5" r="4.6" fill="#f6f7f9"></circle><circle cx="327.9" cy="77.5" r="4.6" fill="#f6f7f9"></circle><g opacity="0.2"><rect x="379.1" y="132" width="320.6" height="12.6" fill="#3F3D56"></rect></g><rect x="657" y="132" width="42.6" height="12.6" fill="#FDC134"></rect><g opacity="0.2"><rect x="337.6" y="203.5" width="403.4" height="144.5" fill="#3F3D56"></rect></g><rect x="450.8" y="256.1" width="232.7" height="12.6" fill="#f6f7f9"></rect><rect x="450.8" y="282.8" width="120.7" height="12.6" fill="#f6f7f9"></rect><rect x="657" y="320.8" width="42.6" height="12.6" fill="#FDC134"></rect><circle cx="386.3" cy="275.7" r="22.8" fill="#f6f7f9"></circle><g opacity="0.2"><rect x="337.6" y="388.5" width="403.4" height="144.5" fill="#3F3D56"></rect></g><rect x="450.8" y="441.1" width="232.7" height="12.6" fill="#f6f7f9"></rect><rect x="450.8" y="467.7" width="120.7" height="12.6" fill="#f6f7f9"></rect><rect x="657" y="505.8" width="42.6" height="12.6" fill="#FDC134"></rect><circle cx="386.3" cy="460.7" r="22.8" fill="#f6f7f9"></circle><g opacity="0.2"><rect x="337.6" y="573.5" width="403.4" height="144.5" fill="#3F3D56"></rect></g><rect x="450.8" y="626.1" width="232.7" height="12.6" fill="#f6f7f9"></rect><rect x="450.8" y="652.7" width="120.7" height="12.6" fill="#f6f7f9"></rect><rect x="657" y="690.8" width="42.6" height="12.6" fill="#FDC134"></rect><circle cx="386.3" cy="645.7" r="22.8" fill="#f6f7f9"></circle><path d="M 192 466.5 c -3.9 17.6 -10.8 39.3 -10.8 39.3 c 6.9 8.1 37 9.5 37 9.5 l 0.1 -0.1 l 0.5 0 c 0.2 1.1 0.5 2.2 0.7 3.2 q -0.1 1.5 -0.1 3.1 a 8.3 8.3 0 0 0 -0.4 3.8 a 8.5 8.5 0 0 0 0.2 0.8 c -0.7 15.9 -1.2 32.9 -0.8 42.8 a 41.1 41.1 0 0 0 0.8 8.3 a 29.8 29.8 0 0 1 0.9 6.3 c 0.5 14.4 -3 38.5 -3 38.5 s 0.1 0.3 0.1 0.5 c -0.1 0.4 -0.1 0.7 -0.1 0.7 a 11.4 11.4 0 0 1 0.5 3 c 0.3 12.1 -6.7 38.5 -6.7 38.5 s -5.6 40.5 -4.8 56 a 35.6 35.6 0 0 0 0.3 3.7 c 1.7 12.8 4 48.7 4 48.7 a 16.1 16.1 0 0 0 1.3 1.7 c -0.2 0.8 -0.4 1.6 -0.7 2.4 a 67.6 67.6 0 0 0 -3.4 25.1 c 0.1 1 0.1 2.1 0.3 3.2 c 1.1 13.2 33.2 5 35.3 3.5 c 0.7 -0.5 0.2 -5.3 -0.8 -11.4 l 33 8.2 s 23.4 3.5 34.5 0 s 10.7 -13 -5.2 -14.6 c -11.2 -1.1 -20 -11.5 -24.4 -17.6 c 1.7 -4.6 14.4 -39.6 16.7 -61.3 a 306.7 306.7 0 0 1 7.4 -41.5 l 2.5 -32.2 l 4.4 -19 l 5.3 -25.1 c 6 -18.4 7.8 -49.2 7.8 -49.2 l 4.6 -30.2 A 58.5 58.5 0 0 0 330 505 a 111.7 111.7 0 0 1 12.8 3.4 c 7.2 -5.6 -3 -59.6 -3 -59.6 s -4.9 -34.1 -9.1 -65.2 c 9.5 -1.4 19.9 0.8 19.9 0.8 l 60.4 1.3 a 30.7 30.7 0 0 0 3.2 -5.3 h 2.6 a 5.5 5.5 0 0 0 0.8 -1.5 l 1.1 0.2 a 89.4 89.4 0 0 1 11.6 3.5 s 19.1 2.3 16.2 -17.7 c -2.1 -14.9 -19.1 -9.5 -27.6 -5.8 l -1.1 0.5 c -0.1 -0.6 -0.1 -0.9 -0.1 -0.9 l -2.7 0.5 a 13.2 13.2 0 0 0 -0.6 -1.2 s -29.6 -1.1 -53.7 -4.8 c -17.1 -2.6 -30 -12.3 -36.1 -17.8 c -4.2 -21.4 -16.4 -27.9 -16.4 -27.9 c -6.8 -0.3 -12.9 -3.3 -16.7 -5.6 a 35.2 35.2 0 0 1 -3.9 -2.7 l -0.7 0.4 l -0.1 -0.1 c 4.1 -3.8 8.3 -7.3 12 -10.2 l 1.7 -1.3 a 37.1 37.1 0 0 0 30.3 -51.9 c -0.2 -0.4 -0.3 -0.7 -0.5 -1.1 a 8.3 8.3 0 0 0 7.3 -7.2 c 0.4 -4.2 -2.5 -8.7 -0.6 -12.4 a 12.1 12.1 0 0 0 0.9 -1.8 a 4.7 4.7 0 0 0 0.1 -1.8 a 12.4 12.4 0 0 0 -5 -9 c -4.3 -3.1 -8.1 -1.5 -12.8 -1.8 c -5.4 -0.3 -10.8 -1.6 -16.1 -2.5 c -6.1 -1 -12.4 -1.7 -18.5 -0.6 s -12.1 4.1 -15.7 9.2 c -1.5 2.2 -2.5 4.7 -4 6.9 c -1.6 2.6 -3.7 4.8 -5.6 7.3 c -3.1 4.1 -5.7 8.9 -5.5 14.1 c 0.1 2.9 1.2 5.7 1.4 8.6 a 52.5 52.5 0 0 1 -0.6 8.1 a 35.5 35.5 0 0 0 0.6 10.3 a 6.4 6.4 0 0 0 1.2 2.9 a 6.3 6.3 0 0 0 2.6 1.7 a 23.2 23.2 0 0 0 3.2 1 a 45.7 45.7 0 0 1 -4.5 8.1 l -1.6 -1.7 l -4.4 6.8 l -0.2 -0.5 c -0.2 0.4 -0.5 0.8 -0.7 1.3 l -0.5 -1.3 c -1.9 3.9 -5.6 7.1 -9.8 9.8 c -11.5 7.2 -27.4 10.2 -27.4 10.2 c -25.8 3.7 -21 30.4 -21 30.4 s -10.9 47.5 -14 76.8 s 8.3 48 8.3 48 Z m 122.8 -86.8 c 1 3.3 1.9 6.4 2.6 9.1 L 317 389 C 316.4 386.5 315.7 383.3 314.9 379.7 Z m -28.3 -79.7 l -0.1 0.1 l 0.1 -0.1 Z M 242.1 796.2 c -1.3 -7.5 -3.1 -16.6 -4.3 -22.1 c 0.8 -2.7 1.9 -6.8 3.2 -12.8 c 2.9 -13.6 4.6 -61.8 4.6 -61.8 l 6.7 -40.5 c 6.1 -15.5 7.5 -34 7.5 -34 c 2.5 -6.5 8.2 -46.4 9.1 -52.8 c -0.3 4.4 -0.9 15.7 -1.2 28.1 c 0 0.1 0 0.2 0 0.3 c -0.3 9.4 -0.3 19.5 0 27.9 v 0 c 0.1 2.4 0.2 4.6 0.4 6.6 c 0.1 0.5 0.1 1.1 0.1 1.6 c 0.7 21.7 -9 49 -9 49 s -4.3 20.2 -3.7 31.6 a 20.8 20.8 0 0 0 0.9 6 a 10.6 10.6 0 0 1 0.5 2.8 c 0.2 10.8 -6.2 33.5 -7.8 39.1 C 245.4 772.6 242.7 791.3 242.1 796.2 Z" transform="translate(-28.4,-12.1)" fill="url(#052f7d93-657d-41ac-9ec0-ae0276bba283)"></path><path d="M 277.7 766.7 s 11.2 20.3 27 21.9 s 16.2 11 5.1 14.4 s -34.2 0 -34.2 0 l -33.1 -8.2 s 4 -32.7 9.3 -34.4 S 277.7 766.7 277.7 766.7 Z" transform="translate(-28.4,-12.1)" fill="#4c4c78"></path><path d="M 237.4 767 s 8.4 37.6 6.3 39.2 s -33.8 9.7 -35 -3.4 c -0.1 -1.1 -0.2 -2.1 -0.2 -3.2 a 66.6 66.6 0 0 1 3.3 -24.9 a 20.6 20.6 0 0 0 1.3 -7.7 C 212.5 761.7 237.4 767 237.4 767 Z" transform="translate(-28.4,-12.1)" fill="#4c4c78"></path><path d="M 247.8 290.5 s 25.7 63 21.1 42.8 c -3 -13.4 16.5 -31.2 30 -41.7 c 6.9 -5.3 12.2 -8.8 12.2 -8.8 s -48.2 -56.2 -44.8 -31.9 a 36.5 36.5 0 0 1 -2.6 19.6 A 51.3 51.3 0 0 1 247.8 290.5 Z" transform="translate(-28.4,-12.1)" fill="#ffb9b9"></path><path d="M 411.8 380 a 14.8 14.8 0 0 1 5.9 0.4 a 86.6 86.6 0 0 1 11.4 3.5 s 18.9 2.3 16 -17.5 c -2.1 -14.8 -18.9 -9.4 -27.3 -5.7 c -2.9 1.3 -4.8 2.3 -4.8 2.3 Z" transform="translate(-28.4,-12.1)" fill="#ffb9b9"></path><path d="M 411.8 380 a 14.8 14.8 0 0 1 5.9 0.4 c 2 -5.2 0.5 -17.5 0.2 -19.8 c -2.9 1.3 -4.8 2.3 -4.8 2.3 Z" transform="translate(-28.4,-12.1)" opacity="0.1"></path><path d="M 411.7 361.1 l 4.9 -0.9 s 2.5 17 -0.8 21.4 h -5.7 Z" transform="translate(-28.4,-12.1)" fill="#cbcdda"></path><path d="M 312.5 392.1 s 15.1 -9 16.9 2.4 s 4.2 30.9 4.2 30.9 l 4.2 24.8 l 5.4 49.7 l -0.8 8.5 S 326.4 503 322.6 504.9 S 315.8 484 315.8 484 l -6.3 -23.6 l -1 -50 Z" transform="translate(-28.4,-12.1)" fill="#4c4c78"></path><path d="M 312.5 392.1 s 15.1 -9 16.9 2.4 s 4.2 30.9 4.2 30.9 l 4.2 24.8 l 5.4 49.7 l -0.8 8.5 S 326.4 503 322.6 504.9 S 315.8 484 315.8 484 l -6.3 -23.6 l -1 -50 Z" transform="translate(-28.4,-12.1)" opacity="0.1"></path><path d="M 320.6 333.6 s 15.7 17.7 39.5 21.3 s 53.2 4.7 53.2 4.7 s 7.4 13.3 -3.3 27.4 l -59.9 -1.3 s -13.3 -2.9 -23.5 0 Z" transform="translate(-28.4,-12.1)" fill="#4c4c78"></path><path d="M 320.6 333.6 s 15.7 17.7 39.5 21.3 s 53.2 4.7 53.2 4.7 s 7.4 13.3 -3.3 27.4 l -59.9 -1.3 s -13.3 -2.9 -23.5 0 Z" transform="translate(-28.4,-12.1)" opacity="0.05"></path><path d="M 450.8 406.1" transform="translate(-28.4,-12.1)" fill="none" stroke="blue" stroke-miterlimit="10"></path><path d="M 266.2 269.9 c 5.8 12.5 16 21.7 30.8 21.7 c 0.7 0 1.3 0 1.9 0 c 6.9 -5.3 12.2 -8.8 12.2 -8.8 s -48.2 -56.2 -44.8 -31.9 C 267.4 258.3 268.6 264.3 266.2 269.9 Z" transform="translate(-28.4,-12.1)" opacity="0.1"></path><path d="M 260.3 253.7 A 36.7 36.7 0 1 0 297 217 A 36.7 36.7 0 0 0 260.3 253.7 Z" transform="translate(-28.4,-12.1)" fill="#ffb9b9"></path><path d="M 237.8 478.2 s 81.9 7.2 85 -3.2 s -8.4 -38.8 -8.4 -38.8 l 3.7 -39.5 l 0.1 -1.5 S 308 352.4 308.3 349 c 0.3 -3.1 -16.5 -39 -20 -46.3 l -0.6 -1.3 l -0.7 0.4 l -0.3 0.2 l -4 2.3 l -15.9 -3.7 l -19.1 -10 L 246 399.9 Z" transform="translate(-28.4,-12.1)" fill="#cbcdda"></path><path d="M 280.4 302.7 s 5.6 -1.5 7.8 4.1 a 57.7 57.7 0 0 0 3 7 l 2.2 13 l 4 20.5 l 2.9 91 L 299 454.5 l -7.3 -13 l -1.3 -85 v -10.6 a 76.7 76.7 0 0 0 -6.1 -26.6 l -1 -2.4 l -6.4 -8.2 Z" transform="translate(-28.4,-12.1)" opacity="0.1"></path><path d="M 281.5 301.5 s 5.6 -1.5 7.8 4.1 a 57.7 57.7 0 0 0 3 7 l 2.2 13 l 4 20.5 l 3 91 l -1.3 16.2 l -7.3 -13 l -1.3 -85 v -10.6 a 76.7 76.7 0 0 0 -6.1 -26.6 l -1 -2.4 L 278 307.6 Z" transform="translate(-28.4,-12.1)" fill="#4c4c78"></path><path d="M 257.6 278 s 19.4 20.5 26.2 23 c 0 0 -3.4 15.6 -6.8 18.6 c 0 0 -20.4 -20.8 -24 -22.4 l -3 -7.4 Z" transform="translate(-28.4,-12.1)" opacity="0.1"></path><path d="M 257.6 276.9 s 19.4 20.5 26.2 23 c 0 0 -3.4 15.6 -6.8 18.6 c 0 0 -20.4 -20.8 -24 -22.4 l -3 -7.4 Z" transform="translate(-28.4,-12.1)" fill="#cbcdda"></path><path d="M 286.6 301.4 l 0.2 0.5 L 293 318.5 L 304.1 350 s 0.1 0.3 0.3 0.9 c 1.8 5.7 11.7 36.8 13.7 45.8 l 0.1 -1.5 S 308 352.4 308.3 349 c 0.3 -3.1 -16.5 -39 -20 -46.3 c -0.6 -0.4 -1 -0.7 -1.3 -0.9 Z" transform="translate(-28.4,-12.1)" opacity="0.1"></path><path d="M 287.7 301.3 l 6.4 17.2 L 305.2 350 s 0.1 0.3 0.3 0.9 c 1.9 6.1 13.1 40.9 14 47.3 c 1 7 15 44.8 15 44.8 l 8 65.5 c 7.1 -5.6 -3 -59 -3 -59 s -11.4 -79.3 -14.1 -105.7 S 308.1 309.6 308.1 309.6 c -6.7 -0.3 -12.8 -3.3 -16.5 -5.6 A 35.3 35.3 0 0 1 287.7 301.3 Z" transform="translate(-28.4,-12.1)" fill="#4c4c78"></path><path d="M 207.2 722.4 c 1.7 12.7 4 48.3 4 48.3 c 8 12 25.7 5.5 25.7 5.5 s 1.9 -3.6 4.7 -17.1 s 4.6 -61.2 4.6 -61.2 l 6.7 -40.1 c 6.1 -15.4 7.4 -33.6 7.4 -33.6 c 2.7 -7 9.1 -53.2 9.1 -53.2 s -2.7 41.5 -1 63.3 s -8.7 51.3 -8.7 51.3 s -5.9 27.6 -2.9 36.1 s -7.6 43.9 -7.6 43.9 c 0.9 10.3 31.2 6.1 31.2 6.1 s 14.3 -38.2 16.7 -61.2 a 303.9 303.9 0 0 1 7.3 -41.2 l 2.5 -31.9 l 4.4 -18.8 l 5.2 -24.9 c 5.9 -18.3 7.7 -48.8 7.7 -48.8 l 4.6 -29.9 c 3 -14.8 -0.9 -32.2 -3.5 -41.3 c -1.1 -3.9 -2 -6.3 -2 -6.3 c -2.6 1.9 -17.6 4 -25.4 5.8 a 44.2 44.2 0 0 1 -13 1 A 288.8 288.8 0 0 1 227 463.4 l -2 -0.6 l -0.4 3.4 l -0.9 8.2 L 222 488.9 s -5.1 77.2 -2.1 87.7 s -2.1 45.6 -2.1 45.6 c 2.9 8.3 -6.1 42.2 -6.1 42.2 S 205.5 709.6 207.2 722.4 Z" transform="translate(-28.4,-12.1)" opacity="0.1"></path><path d="M 207.2 721.2 c 1.7 12.7 4 48.3 4 48.3 c 8 12 25.7 5.5 25.7 5.5 s 1.9 -3.6 4.7 -17.1 s 4.6 -61.2 4.6 -61.2 l 6.7 -40.1 c 6.1 -15.4 7.4 -33.6 7.4 -33.6 c 2.7 -7 9.1 -53.2 9.1 -53.2 s -2.7 41.5 -1 63.3 s -8.7 51.3 -8.7 51.3 s -5.9 27.6 -2.9 36.1 s -7.6 43.9 -7.6 43.9 c 0.9 10.3 31.2 6.1 31.2 6.1 s 14.3 -38.2 16.7 -61.2 a 303.9 303.9 0 0 1 7.3 -41.2 l 2.5 -31.9 l 4.4 -18.8 l 5.2 -24.9 c 5.9 -18.3 7.7 -48.8 7.7 -48.8 l 4.6 -29.9 c 3 -14.8 -0.9 -32.2 -3.5 -41.3 c -1.1 -3.9 -2 -6.3 -2 -6.3 c -2.6 1.9 -17.6 4 -25.4 5.8 a 44.2 44.2 0 0 1 -13 1 A 288.8 288.8 0 0 1 227 462.3 l -2 -0.6 l -0.4 3.4 l -0.9 8.2 L 222 487.8 s -5.1 77.2 -2.1 87.7 S 217.8 621 217.8 621 c 2.9 8.3 -6.1 42.2 -6.1 42.2 S 205.5 708.5 207.2 721.2 Z" transform="translate(-28.4,-12.1)" fill="#474463"></path><path d="M 260.3 253.7 A 36.7 36.7 0 0 0 265.1 272 c 5.7 1 11.8 -0.1 16.1 -3.9 c 2.9 -2.6 4.8 -6.1 7.3 -9.1 a 53.5 53.5 0 0 1 5.3 -5.2 a 16.3 16.3 0 0 1 4.1 -3 a 5.6 5.6 0 0 1 5 -0.1 c 2 1.1 2.7 3.6 3.9 5.7 a 7.5 7.5 0 0 0 4.2 3.7 a 4.5 4.5 0 0 0 5 -1.7 c 1.2 -2.1 0.3 -5.5 2.4 -6.8 a 12.6 12.6 0 0 1 1.7 -0.7 c 2.7 -1.2 3 -4.8 3.2 -7.8 c 0.1 -1.4 0.4 -3.1 1.6 -3.9 s 2.8 -0.4 4.3 -0.3 a 6 6 0 0 0 1.3 -0.1 a 36.7 36.7 0 0 0 -70.3 14.9 Z" transform="translate(-28.4,-12.1)" opacity="0.1"></path><path d="M 332.8 206 a 12.2 12.2 0 0 1 5 8.9 a 4.7 4.7 0 0 1 -0.1 1.8 a 13 13 0 0 1 -0.9 1.7 c -1.9 3.7 1 8.1 0.6 12.3 a 8.2 8.2 0 0 1 -8 7.2 c -1.4 0 -3 -0.4 -4.3 0.3 s -1.5 2.4 -1.6 3.9 c -0.2 3 -0.5 6.6 -3.2 7.8 a 14.1 14.1 0 0 0 -1.7 0.7 c -2.1 1.3 -1.2 4.7 -2.4 6.8 a 4.5 4.5 0 0 1 -5 1.7 a 7.6 7.6 0 0 1 -4.2 -3.7 c -1.1 -2 -1.8 -4.5 -3.9 -5.7 a 5.7 5.7 0 0 0 -5 0.1 a 16.3 16.3 0 0 0 -4.1 3 a 54.6 54.6 0 0 0 -5.3 5.2 c -2.5 3 -4.4 6.5 -7.3 9.1 c -5.5 4.8 -14 5.3 -20.8 2.6 a 6.4 6.4 0 0 1 -2.6 -1.6 A 6.5 6.5 0 0 1 256.7 265 a 35.5 35.5 0 0 1 -0.6 -10.2 a 51.7 51.7 0 0 0 0.6 -8 c -0.2 -2.9 -1.2 -5.7 -1.4 -8.5 c -0.3 -5.1 2.3 -9.9 5.4 -14 c 1.9 -2.4 4 -4.6 5.6 -7.2 c 1.4 -2.2 2.4 -4.7 3.9 -6.9 c 3.5 -5 9.5 -8 15.5 -9.1 s 12.3 -0.4 18.4 0.6 c 5.3 0.9 10.6 2.2 16 2.5 C 324.8 204.4 328.5 202.9 332.8 206 Z" transform="translate(-28.4,-12.1)" fill="#472727"></path><path d="M 287.7 301.3 l 6.4 17.2 L 305.2 350 s 0.1 0.3 0.3 0.9 l 0 0 l -14 -46.9 A 35.3 35.3 0 0 1 287.7 301.3 Z" transform="translate(-28.4,-12.1)" opacity="0.1"></path><path d="M 218.3 498.2 s -0.7 20.8 4.9 26 l 14.9 -28.1 L 225.6 490 Z" transform="translate(-28.4,-12.1)" fill="#ffb9b9"></path><path d="M 183.5 505.8 c 6.8 8 36.6 9.4 36.6 9.4 l 29.5 -46.5 s 7 -4.8 20.1 -26.7 s 12.7 -38.6 12 -51.2 s -9 -48.6 -9 -48.6 c -1.3 -8.1 -19.7 -59 -19.7 -59 c -1.9 3.9 -5.5 7.1 -9.7 9.7 C 232 300.1 216.1 303 216.1 303 c -25.5 3.7 -20.8 30.1 -20.8 30.1 S 195 435.7 196.6 447.9 S 183.5 505.8 183.5 505.8 Z" transform="translate(-28.4,-12.1)" opacity="0.1"></path><polygon points="189.5,490.1 190.3,497.7 200.7,493.9 208.3,482.4 202.6,477.9 189.5,490.1" fill="#cbcdda"></polygon><path d="M 218.3 472.7 l 5.4 0.6 L 276 478.5 a 84.7 84.7 0 0 0 25.1 -1.2 l 24.2 -4.8 c -1.1 -3.9 -2 -6.3 -2 -6.3 c -2.6 1.9 -17.6 4 -25.4 5.8 a 44.2 44.2 0 0 1 -13 1 A 288.8 288.8 0 0 1 227 462.3 l -2.4 2.8 Z" transform="translate(-28.4,-12.1)" opacity="0.1"></path><g opacity="0.1"><path d="M 322.8 466.4 a 5.5 5.5 0 0 0 0.5 -0.3 l 0.1 0.1 Z" transform="translate(-28.4,-12.1)"></path><path d="M 211.7 663.2 s 8.9 -33.9 6.1 -42.2 c 0 0 5.1 -35.1 2.1 -45.6 s 2.1 -87.7 2.1 -87.7 l 1.7 -14.5 l 1 -8.2 l 0.4 -3.4 s 0.7 0.2 2 0.6 l 1.2 0.4 L 228 464 l -0.9 8.2 l -1.7 14.5 s -5.1 77.2 -2.1 87.7 s -2.1 45.6 -2.1 45.6 c 2.9 8.3 -6.1 42.2 -6.1 42.2 s -6.3 45.3 -4.6 58 s 4 48.3 4 48.3 c 5.8 8.8 16.8 7.7 22.3 6.4 c -0.1 0.1 -0.1 0.2 -0.1 0.2 s -17.7 6.5 -25.7 -5.5 c 0 0 -2.3 -35.6 -4 -48.3 S 211.7 663.2 211.7 663.2 Z" transform="translate(-28.4,-12.1)"></path><path d="M 256.8 720.5 c -3 -8.6 2.9 -36.1 2.9 -36.1 s 10.4 -29.5 8.7 -51.3 c -0.7 -9.1 -0.7 -21.6 -0.4 -33.1 c 2.4 -14.8 4.7 -31.4 4.7 -31.4 s -2.7 41.4 -0.9 63.3 s -8.7 51.3 -8.7 51.3 s -5.9 27.6 -2.9 36.1 s -7.6 43.9 -7.6 43.9 c 0.8 8.2 20.3 7.2 28 6.4 l -0.3 0.8 s -30.2 4.2 -31.2 -6.1 C 249.2 764.4 259.8 729 256.8 720.5 Z" transform="translate(-28.4,-12.1)"></path></g><path d="M 182.3 505.8 c 6.8 8 36.6 9.4 36.6 9.4 l 29.5 -46.5 s 7 -4.8 20.1 -26.7 s 12.7 -38.6 12 -51.2 s -9 -48.6 -9 -48.6 c -1.3 -8.1 -19.7 -59 -19.7 -59 c -1.9 3.9 -5.5 7.1 -9.7 9.7 C 230.8 300.1 215 303 215 303 c -25.5 3.7 -20.8 30.1 -20.8 30.1 s -0.3 102.5 1.3 114.8 S 182.3 505.8 182.3 505.8 Z" transform="translate(-28.4,-12.1)" fill="#4c4c78"></path><path d="M 246.5 308.5 l 6.4 2.4 l -4.3 3 l 31.9 77 c -0.7 -12.6 -9 -48.6 -9 -48.6 c -1.3 -8.1 -19.7 -59 -19.7 -59 c -1.9 3.9 -5.5 7.1 -9.7 9.7 Z" transform="translate(-28.4,-12.1)" opacity="0.1"></path><polygon points="210.4,433.5 177.7,425.1 173.4,438.4 206.8,446.5 210.4,433.5" opacity="0.1"></polygon><path d="M 220.1 313.9 s 14.8 14 9.3 45.1 s -14.5 64.9 -14.5 64.9 L 239 490.7 s -16.8 17.5 -25.1 19.7 l -24.1 -53.5 s -11.3 -18.5 -8.3 -47.6 s 13.8 -76.2 13.8 -76.2 S 195.3 304.5 220.1 313.9 Z" transform="translate(-28.4,-12.1)" opacity="0.1"></path><path d="M 219 313.9 s 14.8 14 9.3 45.1 s -14.5 64.9 -14.5 64.9 L 237.8 490.7 S 221 508.2 212.7 510.4 l -24.1 -53.5 s -11.3 -18.5 -8.3 -47.6 s 13.8 -76.2 13.8 -76.2 S 194.2 304.5 219 313.9 Z" transform="translate(-28.4,-12.1)" fill="#4c4c78"></path><path d="M 237 492.1 s -18.8 26 -17.4 33 s 6.9 3.2 6.9 3.2 L 234 518.2 l 6.7 -19 S 240 491 237 492.1 Z" transform="translate(-28.4,-12.1)" opacity="0.1"></path><path d="M 239.3 492.1 s -18.8 26 -17.4 33 s 6.9 3.2 6.9 3.2 l 7.4 -10.2 l 6.7 -19 S 242.3 491 239.3 492.1 Z" transform="translate(-28.4,-12.1)" opacity="0.1"></path><path d="M 238.2 492.1 s -18.8 26 -17.4 33 s 6.9 3.2 6.9 3.2 l 7.4 -10.2 l 6.7 -19 S 241.2 491 238.2 492.1 Z" transform="translate(-28.4,-12.1)" fill="#474463"></path></svg> 