<svg id="e66cdcae-b662-46fb-b424-18ba1a805fb0" data-name="Layer 1" xmlns="http://www.w3.org/2000/svg" width="832.5" height="677.8" viewBox="0 0 832.5 677.84461"><title>bookmarks</title><ellipse cx="667" cy="643.8" rx="151" ry="34" fill="#4285f4"/><ellipse cx="681" cy="633.8" rx="151" ry="34" fill="none" stroke="#3f3d56" stroke-miterlimit="10"/><circle cx="436.5" cy="304.3" r="30" fill="#4285f4"/><circle cx="557.5" cy="304.3" r="30" fill="#4285f4"/><circle cx="678.5" cy="304.3" r="30" fill="#4285f4"/><circle cx="12.5" cy="20.3" r="3" fill="#f86b75"/><circle cx="21.5" cy="20.3" r="3" fill="#fad375"/><circle cx="30.5" cy="20.3" r="3" fill="#8bcc55"/><rect x="67" y="66.8" width="206" height="64" fill="#4285f4"/><rect x="0.5" y="10.3" width="364" height="216" fill="none" stroke="#3f3d56" stroke-miterlimit="10"/><line x1="0.5" y1="26.70288" x2="364.5" y2="26.70288" fill="none" stroke="#3f3d56" stroke-miterlimit="10"/><circle cx="13.5" cy="18.3" r="3" fill="none" stroke="#3f3d56" stroke-miterlimit="10"/><circle cx="22.5" cy="18.3" r="3" fill="none" stroke="#3f3d56" stroke-miterlimit="10"/><circle cx="31.5" cy="18.3" r="3" fill="none" stroke="#3f3d56" stroke-miterlimit="10"/><rect x="79.5" y="54.3" width="206" height="64" fill="none" stroke="#3f3d56" stroke-miterlimit="10"/><rect x="41" y="158.8" width="276" height="8.3" fill="#f2f2f2"/><rect x="41" y="178.7" width="276" height="8.3" fill="#f2f2f2"/><rect x="41" y="198.6" width="276" height="8.3" fill="#f2f2f2"/><rect x="44" y="154.8" width="276" height="8.3" fill="none" stroke="#3f3d56" stroke-miterlimit="10"/><rect x="44" y="174.7" width="276" height="8.3" fill="none" stroke="#3f3d56" stroke-miterlimit="10"/><rect x="44" y="194.6" width="276" height="8.3" fill="none" stroke="#3f3d56" stroke-miterlimit="10"/><circle cx="96.5" cy="394.3" r="3" fill="#f86b75"/><circle cx="105.5" cy="394.3" r="3" fill="#fad375"/><circle cx="114.5" cy="394.3" r="3" fill="#8bcc55"/><rect x="151" y="440.8" width="206" height="64" fill="#4285f4"/><polyline points="448.5,428.3 448.5,600.3 84.5,600.3 84.5,384.3 380.5,384.3" fill="none" stroke="#3f3d56" stroke-miterlimit="10"/><line x1="84.5" y1="400.70288" x2="381" y2="400.70288" fill="none" stroke="#3f3d56" stroke-miterlimit="10"/><circle cx="97.5" cy="392.3" r="3" fill="none" stroke="#3f3d56" stroke-miterlimit="10"/><circle cx="106.5" cy="392.3" r="3" fill="none" stroke="#3f3d56" stroke-miterlimit="10"/><circle cx="115.5" cy="392.3" r="3" fill="none" stroke="#3f3d56" stroke-miterlimit="10"/><rect x="163.5" y="428.3" width="206" height="64" fill="none" stroke="#3f3d56" stroke-miterlimit="10"/><circle cx="392.5" cy="221.3" r="3" fill="#f86b75"/><circle cx="401.5" cy="221.3" r="3" fill="#fad375"/><circle cx="410.5" cy="221.3" r="3" fill="#8bcc55"/><rect x="380.5" y="211.3" width="364" height="216" fill="none" stroke="#3f3d56" stroke-miterlimit="10"/><line x1="380.5" y1="227.70288" x2="744.5" y2="227.70288" fill="none" stroke="#3f3d56" stroke-miterlimit="10"/><circle cx="393.5" cy="219.3" r="3" fill="none" stroke="#3f3d56" stroke-miterlimit="10"/><circle cx="402.5" cy="219.3" r="3" fill="none" stroke="#3f3d56" stroke-miterlimit="10"/><circle cx="411.5" cy="219.3" r="3" fill="none" stroke="#3f3d56" stroke-miterlimit="10"/><circle cx="441.5" cy="299.3" r="30" fill="none" stroke="#3f3d56" stroke-miterlimit="10"/><circle cx="562.5" cy="299.3" r="30" fill="none" stroke="#3f3d56" stroke-miterlimit="10"/><circle cx="683.5" cy="299.3" r="30" fill="none" stroke="#3f3d56" stroke-miterlimit="10"/><rect x="396" y="354.8" width="82" height="8" fill="#f2f2f2"/><rect x="518" y="354.8" width="82" height="8" fill="#f2f2f2"/><rect x="640" y="354.8" width="82" height="8" fill="#f2f2f2"/><rect x="400" y="351.8" width="82" height="8" fill="none" stroke="#3f3d56" stroke-miterlimit="10"/><rect x="522" y="351.8" width="82" height="8" fill="none" stroke="#3f3d56" stroke-miterlimit="10"/><rect x="644" y="351.8" width="82" height="8" fill="none" stroke="#3f3d56" stroke-miterlimit="10"/><rect x="98" y="529.8" width="63" height="54" fill="#f2f2f2"/><rect x="214.5" y="530.3" width="63" height="54" fill="#f2f2f2"/><rect x="331" y="530.8" width="63" height="54" fill="#f2f2f2"/><rect x="107" y="519.8" width="63" height="54" fill="none" stroke="#3f3d56" stroke-miterlimit="10"/><rect x="223.5" y="520.3" width="63" height="54" fill="none" stroke="#3f3d56" stroke-miterlimit="10"/><rect x="340" y="520.8" width="63" height="54" fill="none" stroke="#3f3d56" stroke-miterlimit="10"/><polygon points="600.8,204.5 572.7,220 602.6,209.5 600.8,204.5" fill="#79758c"/><ellipse cx="792.3" cy="315.9" rx="7.8" ry="15.8" transform="translate(-242.6,149.1) rotate(-18)" fill="#3f3d56"/><ellipse cx="816.7" cy="303.8" rx="5.9" ry="11.1" transform="translate(-237.7,156.1) rotate(-18)" fill="#3f3d56"/><polygon points="610.4,195.7 629,189 632.9,199.9 614.9,212.1 610.4,195.7" fill="#3f3d56"/><path d="M 792.3 347 l 5 -11 s 12 -32 1 -26 s -15 22 -15 22 l -3 10 Z" transform="translate(-183.8,-111.1)" fill="#a0616a"/><path d="M 929.3 513 s -17 33 -22 34 s -5 -30 -5 -30 s 10 -9 14 -8 S 929.3 513 929.3 513 Z" transform="translate(-183.8,-111.1)" fill="#a0616a"/><path d="M 904.3 721 s 9 5 5 16 s -6 8 -8 17 s -20 8 -21 4 s -3 -20 2 -26 S 904.3 721 904.3 721 Z" transform="translate(-183.8,-111.1)" fill="#55536e"/><path d="M 815.3 721 s -9 5 -5 16 s 6 8 8 17 s 20 8 21 4 s 3 -20 -2 -26 S 815.3 721 815.3 721 Z" transform="translate(-183.8,-111.1)" fill="#55536e"/><path d="M 899.3 521 s 8 5 10 36 s -1 66 -2 74 s 1 20 3 26 s -5 52 -5 52 a 23.4 23.4 0 0 1 0 20 c -5 11 -20 22 -24 11 a 27.1 27.1 0 0 0 -3 -11 c -3 -6 2 -30 2 -30 s -4 -38 -3 -48 s -12 -69 -14 -79 s -1 -18 -2 -15 s -19 86 -19 86 s 2 53 1 60 s 4 21 1 26 s -9 23 -20 12 s -9 -15 -10 -20 s 0 -11 0 -19 s -8 -53 -4 -60 s 2 -16 1 -32 s -2 -93 8 -107 S 899.3 521 899.3 521 Z" transform="translate(-183.8,-111.1)" fill="#3f3d56"/><circle cx="691.1" cy="198.5" r="24" fill="#a0616a"/><path d="M 890.3 319 s -1 36 4 42 s -43 -5 -43 -5 s 11 -23 4 -38 S 890.3 319 890.3 319 Z" transform="translate(-183.8,-111.1)" fill="#a0616a"/><path d="M 899.3 357 s -2 -8 -14 -10 s -26.2 -4 -30.6 0 s -6.4 9 -9.4 9 h -14 l -22 39 s 11 13 8 37 s -8 68 -8 68 a 220 220 0 0 1 21 34 c 10 20 79 18 75 -17 c 0 0 -5 -9 -3 -17 s 8 -62 8 -62 l 23 -61 S 901.3 361 899.3 357 Z" transform="translate(-183.8,-111.1)" fill="#55536e"/><path d="M 926.3 376 h 7 s 4 23 3 37 s -1 47 -1 47 s 4 8 3 15 s -3 26 -3 26 s -1 27 -20 13 c 0 0 -6 -3 -3 -16 s -2 -27 -2 -27 s 3 -9 2 -15 s -5 -25 -5 -25 Z" transform="translate(-183.8,-111.1)" fill="#55536e"/><path d="M 836.3 359 l -5 -3 s -7 -3 -17 0 s -15 2 -19 1 s -1 -11 -1 -11 s -8 -14 -16 -6 s -8 24 -8 24 s -5 10 13 16 s 26 15 26 15 h 20 Z" transform="translate(-183.8,-111.1)" fill="#55536e"/><path d="M 873.2 338.2 a 4.6 4.6 0 0 0 -2.9 -4.1 a 13.1 13.1 0 0 0 -3.4 -0.7 c -3.4 -0.4 -6.9 -1.7 -8.9 -4.3 c -2.6 -3.5 -1.9 -8.3 -4 -12.1 a 41.9 41.9 0 0 0 -3.2 -4.2 c -3.7 -4.9 -4.3 -11.3 -4.7 -17.3 a 7.4 7.4 0 0 1 0.4 -3.6 a 13.9 13.9 0 0 1 2.3 -2.8 a 9.4 9.4 0 0 0 2.3 -6.2 c -0.1 -4.7 6.5 -7.8 11.3 -9.4 s 9.8 -1.9 14.8 -1.9 c 2.9 0 5.9 0 8.5 1 a 19.6 19.6 0 0 1 4.3 2.5 c 5.6 4.1 10.8 9.1 12.6 15.4 a 33.3 33.3 0 0 1 1 8.8 a 5.8 5.8 0 0 1 -0.4 2.7 c -0.7 1.3 -2.2 2.1 -3.3 3.2 c -1.9 2.1 -1.6 5.2 -1.8 7.9 a 18.2 18.2 0 0 1 -8.9 13.8 a 11.4 11.4 0 0 0 -2.8 1.9 a 12.3 12.3 0 0 0 -1.5 2.7 C 882.8 335.5 877.8 338.1 873.2 338.2 Z" transform="translate(-183.8,-111.1)" fill="#3f3d56"/><polygon points="192.6,10.7 179.3,18.1 193.5,13 192.6,10.7" fill="#79758c"/><ellipse cx="380" cy="121.9" rx="3.7" ry="7.5" transform="translate(-202.8,12.3) rotate(-18)" fill="#3f3d56"/><ellipse cx="391.6" cy="116.2" rx="2.8" ry="5.3" transform="translate(-200.5,15.6) rotate(-18)" fill="#3f3d56"/><polygon points="197.1,6.5 206,3.3 207.9,8.5 199.3,14.3 197.1,6.5" fill="#3f3d56"/><polygon points="282.6,382.7 269.3,390.1 283.5,385 282.6,382.7" fill="#79758c"/><ellipse cx="470" cy="493.9" rx="3.7" ry="7.5" transform="translate(-313.3,58.3) rotate(-18)" fill="#3f3d56"/><ellipse cx="481.6" cy="488.2" rx="2.8" ry="5.3" transform="translate(-311,61.6) rotate(-18)" fill="#3f3d56"/><polygon points="287.1,378.5 296,375.3 297.9,380.5 289.3,386.3 287.1,378.5" fill="#3f3d56"/></svg>