<svg id="Layer_1" data-name="Layer 1" xmlns="http://www.w3.org/2000/svg" viewBox="0 0 80 80"><defs><style>.cls-1{fill:#FDC134;}.cls-2{fill:#3F3D56;}</style></defs><title>Our Visions</title><circle class="cls-1" cx="1.972" cy="77.797" r="1.555"/><circle class="cls-1" cx="41.702" cy="38.347" r="1.552"/><path class="cls-1" d="M57.359,16.732a6.606,6.606,0,1,0,4.672,11.279h0a6.607,6.607,0,0,0-4.672-11.279Zm2.476,9.084a3.5,3.5,0,1,1,0-4.954A3.505,3.505,0,0,1,59.835,25.816Z"/><path class="cls-1" d="M19.808,64.036a1.552,1.552,0,0,0-2.082.7l-1.849,3.713a5.121,5.121,0,0,1-4.22,2.817l-2.151.147a.919.919,0,0,1-.98-.98l.147-2.151a5.123,5.123,0,0,1,2.817-4.22L15.2,62.211a1.552,1.552,0,1,0-1.384-2.779l-3.713,1.849a8.237,8.237,0,0,0-4.531,6.787l-.147,2.151a4.024,4.024,0,0,0,4.015,4.3c.091,0,.183,0,.275-.009l2.15-.147a8.243,8.243,0,0,0,6.788-4.531l1.849-3.713A1.552,1.552,0,0,0,19.808,64.036Z"/><path class="cls-2" d="M78.512,1.682A3.594,3.594,0,0,0,75.761.655L74.315.747A46.839,46.839,0,0,0,41.038,17.911l-3.4,4.188-8.9-.261h-.045A26.262,26.262,0,0,0,9.994,29.58L.874,38.7a1.552,1.552,0,0,0,1.018,2.648l19.3.992-.787.969a1.552,1.552,0,0,0-.159,1.72q.455.834.95,1.642l-4.577,5.434a1.551,1.551,0,0,0-.216,1.664,20.213,20.213,0,0,0,9.7,9.7,1.553,1.553,0,0,0,1.642-.2c.986-.8,2.123-1.748,3.223-2.666.784-.654,1.586-1.323,2.335-1.94.448.269.9.53,1.36.78a1.552,1.552,0,0,0,1.694-.137l1.058-.821,1,19.385A1.552,1.552,0,0,0,41.067,78.9l9.119-9.119a26.266,26.266,0,0,0,7.743-18.694v-8.5l3.6-2.792A46.653,46.653,0,0,0,79.542,5.173l.037-.756A3.6,3.6,0,0,0,78.512,1.682ZM5.538,38.426l6.651-6.65a23.177,23.177,0,0,1,16.475-6.834l6.508.191L23.62,39.355Zm23.449,19.8c-.81.676-1.641,1.369-2.412,2a17.05,17.05,0,0,1-6.916-6.91l3.351-3.979A36.1,36.1,0,0,0,26.331,53.2l0,0h0a36.065,36.065,0,0,0,4.274,3.674C30.075,57.318,29.527,57.776,28.987,58.226Zm25.838-7.144a23.179,23.179,0,0,1-6.834,16.5L41.34,74.231l-.928-18.059L54.825,44.988ZM76.441,5.021A43.55,43.55,0,0,1,59.623,37.334L35.276,56.227a32.816,32.816,0,0,1-5.623-4.151l8.208-8.208a1.552,1.552,0,0,0-2.2-2.2l-8.2,8.2a32.823,32.823,0,0,1-3.979-5.428L43.448,19.868A43.722,43.722,0,0,1,74.513,3.846l1.445-.093a.491.491,0,0,1,.375.14.484.484,0,0,1,.145.373Z"/></svg>